<?xml version="1.0" encoding="UTF-8" standalone="no"?>
<!-- Created with Inkscape (http://www.inkscape.org/) -->

<svg
   width="210mm"
   height="297mm"
   viewBox="0 0 210 297"
   version="1.1"
   id="svg5"
   inkscape:version="1.2.1 (9c6d41e, 2022-07-14)"
   sodipodi:docname="patricio.svg"
   xmlns:inkscape="http://www.inkscape.org/namespaces/inkscape"
   xmlns:sodipodi="http://sodipodi.sourceforge.net/DTD/sodipodi-0.dtd"
   xmlns="http://www.w3.org/2000/svg"
   xmlns:svg="http://www.w3.org/2000/svg">
  <sodipodi:namedview
     id="namedview7"
     pagecolor="#ffffff"
     bordercolor="#000000"
     borderopacity="0.25"
     inkscape:showpageshadow="2"
     inkscape:pageopacity="0.0"
     inkscape:pagecheckerboard="0"
     inkscape:deskcolor="#d1d1d1"
     inkscape:document-units="mm"
     showgrid="false"
     inkscape:zoom="0.73043095"
     inkscape:cx="425.77605"
     inkscape:cy="468.90127"
     inkscape:window-width="1478"
     inkscape:window-height="800"
     inkscape:window-x="58"
     inkscape:window-y="27"
     inkscape:window-maximized="1"
     inkscape:current-layer="layer1" />
  <defs
     id="defs2" />
  <g
     inkscape:label="Capa 1"
     inkscape:groupmode="layer"
     id="layer1">
    <path
       style="fill:#aa0000;stroke:#008000;stroke-width:0.270756"
       d="m 64.27816,151.57656 c 31.92791,-18.94572 61.06154,-37.60651 61.06154,-37.60651 l 34.12057,85.37295 -51.36706,0.88337 z"
       id="path113"
       sodipodi:nodetypes="ccccc" />
    <path
       style="fill:#000080;stroke:#ff00ff;stroke-width:0.252667"
       d="m 44.42232,201.87421 c 3.767465,4.40227 71.14816,56.15664 71.14816,56.15664 l 43.67044,-59.11616 z"
       id="path169" />
    <ellipse
       style="fill:#00ff00;stroke:#ff00ff;stroke-width:0.264583"
       id="path331"
       cx="96.782578"
       cy="226.64264"
       rx="22.321228"
       ry="17.04237"
       transform="rotate(-2.9905207)" />
    <path
       style="fill:#ff00ff;stroke:#ff00ff;stroke-width:0.264583"
       d="M 33.652904,107.86019 C 38.800894,104.34543 97.48445,67.886089 97.48445,67.886089 l 29.59564,46.221981 -63.344915,40.55936 z"
       id="path535" />
    <path
       id="rect643"
       style="fill:#ffff00;stroke:#ff00ff;stroke-width:0.264583"
       d="M 52.132701,109.8238 91.35476,84.217763 109.38724,111.83902 70.16518,137.44506 Z" />
    <path
       sodipodi:type="star"
       style="fill:#ffff00;stroke:#ff00ff;stroke-width:0.264583"
       id="path853"
       inkscape:flatsided="false"
       sodipodi:sides="5"
       sodipodi:cx="106.92136"
       sodipodi:cy="88.647423"
       sodipodi:r1="18.441454"
       sodipodi:r2="9.220727"
       sodipodi:arg1="0.53099951"
       sodipodi:arg2="1.159318"
       inkscape:rounded="0"
       inkscape:randomized="0"
       d="m 122.82345,97.986092 -12.21413,-0.887591 -7.65555,9.558519 -2.93022,-11.890607 -11.456387,-4.327118 10.403148,-6.461206 0.575115,-12.232822 9.359724,7.897359 11.81182,-3.233183 -4.61852,11.342043 z"
       inkscape:transform-center-x="1.2260527"
       inkscape:transform-center-y="0.55371799"
       transform="translate(9.8748653,77.823642)" />
    <ellipse
       style="fill:#ffff00;stroke:#ff00ff;stroke-width:0.342003"
       id="path908"
       cx="108.89301"
       cy="221.95908"
       rx="19.027309"
       ry="13.300879" />
    <circle
       style="fill:#0000ff;stroke:#ff00ff;stroke-width:0.264583"
       id="path910"
       cx="108.98061"
       cy="221.72055"
       r="12.735953" />
    <ellipse
       style="fill:#000000;stroke:#ff00ff;stroke-width:0.264583"
       id="path964"
       cx="109.54082"
       cy="222.02679"
       rx="11.26441"
       ry="4.5706916" />
    <ellipse
       style="fill:#f2f2f2;stroke:#ff00ff;stroke-width:0.264583"
       id="path1018"
       cx="109.72045"
       cy="222.08568"
       rx="2.1171379"
       ry="3.6048763" />
    <path
       id="path1126"
       style="fill:#ffff00;stroke:#000000;stroke-width:0.264583"
       d="m 62.661977,178.47676 c 23.538803,3.74539 8.769537,22.52367 -4.242375,22.52367 -13.011912,0 -30.180993,-10.14778 -30.180995,-23.15969 2e-6,-13.01191 17.793329,-25.51975 30.805241,-25.51975 5.898362,0 14.290904,14.63143 9.062999,11.75612 -13.704431,-7.53732 -12.470045,13.28184 -5.44487,14.39965 z"
       sodipodi:nodetypes="ssssss" />
    <ellipse
       style="fill:#000000;stroke:#000000;stroke-width:0.264583"
       id="path1181"
       cx="50.534805"
       cy="160.37877"
       rx="3.8676782"
       ry="3.0181727" />
    <ellipse
       style="fill:#f2f2f2;stroke:#000000;stroke-width:0.264583"
       id="path1287"
       cx="50.577507"
       cy="160.75935"
       rx="1.5046695"
       ry="1.2109499" />
    <path
       style="fill:#ffff00;stroke:#000000;stroke-width:0.264583"
       d="m 172.95873,238.66926 -40.57779,51.44473 -54.614805,-6.25166 -16.816504,-32.59192 41.850839,-17.05573 13.82109,22.38091 25.50966,-36.68291 z"
       id="path1343" />
    <path
       style="fill:#ff00ff;stroke:#000000;stroke-width:0.200038"
       d="m 126.00445,115.90533 24.96666,-16.449741 c 0,0 -17.5071,-22.367098 2.66417,-26.53246 20.17126,-4.165363 20.20315,18.427831 20.20315,18.427831 l 2.49406,20.17118 c 0,0 -4.55886,11.8995 -7.38233,6.89485 -2.82345,-5.00463 -6.09559,5.22927 -6.09559,5.22927 l -9.66348,-17.74686 -24.83766,16.32066 z"
       id="path1399" />
    <path
       style="fill:#00ffff;stroke:#000000;stroke-width:0.111139"
       d="M 62.759531,79.924096 C 27.077042,46.548157 53.395761,61.009582 57.329567,61.741592 c 3.933807,0.732009 16.925954,20.580133 11.793177,15.901905 -8.496689,-7.744248 -1.401999,-34.110928 2.578398,-26.942357 3.9804,7.168564 -7.143707,56.84141 7.026553,1.973555 14.170265,-54.8678669 8.495915,13.85829 8.495915,13.85829 0,0 -14.644919,32.149225 -23.529188,17.777228 -8.884269,-14.371998 -50.105919,-6.623151 -27.972638,1.134473 11.09478,3.888673 31.700592,7.350487 31.579321,3.187539 -0.238869,-8.199726 -43.126293,7.054238 -20.167548,5.079537 22.958751,-1.974694 15.625974,-13.787666 15.625974,-13.787666 z"
       id="path1455"
       sodipodi:nodetypes="csssscssssc" />
  </g>
</svg>
