<?xml version="1.0" encoding="UTF-8" standalone="no"?>
<!-- Created with Inkscape (http://www.inkscape.org/) -->

<svg
   width="210mm"
   height="297mm"
   viewBox="0 0 210 297"
   version="1.1"
   id="svg314"
   inkscape:version="1.2.1 (9c6d41e, 2022-07-14)"
   sodipodi:docname="dibujo.svg"
   xmlns:inkscape="http://www.inkscape.org/namespaces/inkscape"
   xmlns:sodipodi="http://sodipodi.sourceforge.net/DTD/sodipodi-0.dtd"
   xmlns="http://www.w3.org/2000/svg"
   xmlns:svg="http://www.w3.org/2000/svg">
  <sodipodi:namedview
     id="namedview316"
     pagecolor="#ffffff"
     bordercolor="#000000"
     borderopacity="0.25"
     inkscape:showpageshadow="2"
     inkscape:pageopacity="0.0"
     inkscape:pagecheckerboard="0"
     inkscape:deskcolor="#d1d1d1"
     inkscape:document-units="mm"
     showgrid="false"
     inkscape:zoom="0.56480079"
     inkscape:cx="396.60001"
     inkscape:cy="562.14511"
     inkscape:window-width="1478"
     inkscape:window-height="800"
     inkscape:window-x="58"
     inkscape:window-y="27"
     inkscape:window-maximized="1"
     inkscape:current-layer="layer1" />
  <defs
     id="defs311" />
  <g
     inkscape:label="Capa 1"
     inkscape:groupmode="layer"
     id="layer1">
    <path
       style="fill:#d35f5f;stroke:#000000;stroke-width:0.264583"
       d="m 81.250599,131.74732 c 0,0 -1.18561,-52.251579 8.99121,-42.881619 11.491521,10.58043 17.989791,38.706239 17.989791,38.706239 0,0 30.80891,-19.70353 34.47784,-8.70853 4.10434,12.29984 -20.7959,27.49432 -20.7959,27.49432 0.49123,3.2138 24.8278,24.97027 15.96307,34.30406 -10.02303,10.55339 -33.23513,-16.8791 -33.23513,-16.8791 0,0 -10.680311,21.97829 -20.589351,20.06051 -9.38433,-1.81623 -4.48634,-29.51892 -4.48634,-29.51892 0,0 -25.958461,7.90923 -27.776971,-3.4388 -1.839656,-11.47998 29.461781,-19.13816 29.461781,-19.13816 z"
       id="path1511"
       sodipodi:nodetypes="cscscscscsc" />
    <path
       style="fill:#241c1c;stroke:#000000;stroke-width:0.264583"
       d="m 86.809029,146.98787 c 17.758941,2.98806 21.819781,-1.42145 21.930151,-8.06249 0.11038,-6.64105 -21.930151,8.06249 -21.930151,8.06249 z"
       id="path1567" />
    <ellipse
       style="fill:#ffffff;stroke:#000000;stroke-width:0.256134"
       id="path1704"
       cx="61.972641"
       cy="141.42"
       rx="6.1436296"
       ry="9.3495178"
       transform="rotate(-11.18096)" />
    <ellipse
       style="fill:#e6e6e6;stroke:#000000;stroke-width:0.264583"
       id="path1704-6"
       cx="77.8694"
       cy="138.9135"
       rx="6.5185175"
       ry="9.4027128"
       transform="rotate(-8.7176613)" />
    <ellipse
       style="fill:#000000;stroke:#000000;stroke-width:0.264583"
       id="path1839"
       cx="87.387062"
       cy="128.60989"
       rx="1.949298"
       ry="3.1020927" />
    <ellipse
       style="fill:#000000;stroke:#000000;stroke-width:0.264583"
       id="path1868"
       cx="97.346291"
       cy="127.94"
       rx="1.954451"
       ry="3.5216925" />
    <path
       style="fill:#c83737;stroke:#000000;stroke-width:0.264583"
       d="m 94.303829,147.73039 c 14.211921,-6.54723 13.257881,-3.09768 13.257881,-3.09768 0,0 -0.64927,1.41486 -4.78344,2.92542 -4.134161,1.51055 -8.474441,0.17226 -8.474441,0.17226 z"
       id="path1870" />
    <path
       style="fill:#c83737;stroke:#000000;stroke-width:0.264583"
       d="m 82.719859,117.46668 c 0.65895,-0.18885 7.6313,-1.87414 7.6313,-1.87414 l -7.98507,0.98363 7.52306,-1.78174 -0.14946,-0.0806 v 0"
       id="path2074" />
    <path
       style="fill:#c83737;stroke:#000000;stroke-width:0.264583"
       d="m 92.993769,115.58477 c 0.66461,-0.16785 7.686911,-1.63109 7.686911,-1.63109 l -8.012251,0.7298 7.575801,-1.54217 -0.14682,-0.0853 v 0"
       id="path2074-5" />
    <path
       style="fill:#00ff00;stroke:#000000;stroke-width:0.264583"
       d="m 79.265429,155.84499 c 55.295591,8.73605 44.143701,-7.32733 44.143701,-7.32733 l 11.85373,15.21399 c 1.6568,1.03585 -20.23585,8.04823 -26.67552,3.95558 -2.99548,-1.90374 -3.67893,-0.79343 -4.24824,-1.57483 l -4.418321,5.27177 c 0,0 -23.55538,0.11406 -21.64287,-3.89856 1.9125,-4.01259 0.0365,0.17812 0.0365,0.17812 z"
       id="path2103"
       sodipodi:nodetypes="cccsccscc" />
    <path
       style="fill:#ff00cc;stroke:#000000;stroke-width:0.264583"
       d="m 86.444089,157.09589 c 0,0 -7.83339,3.13815 -2.41207,5.5258 5.42133,2.38766 8.72101,-4.83639 8.72101,-4.83639 0,0 3.4598,12.05106 6.72152,5.89583 3.261711,-6.15524 -2.4748,-5.49939 -2.4748,-5.49939 l -4.24672,-0.39644"
       id="path2265"
       sodipodi:nodetypes="cscscc" />
    <path
       style="fill:#ff00cc;stroke:#000000;stroke-width:0.264583"
       d="m 121.01587,168.00539 c 0,0 -6.55094,-4.13967 -0.32217,-5.61494 6.22878,-1.47529 6.06219,5.15821 6.06219,5.15821"
       id="path2267" />
    <path
       style="fill:#ff00cc;stroke:#000000;stroke-width:0.264583"
       d="m 126.82342,167.225 c 0,0 4.11667,-7.77611 6.52944,-2.36326"
       id="path2431" />
    <path
       style="fill:#ff00cc;stroke:#000000;stroke-width:0.264583"
       d="M 120.95034,168.40462 Z"
       id="path2437" />
    <path
       style="fill:#ff00cc;stroke:#000000;stroke-width:0.264583"
       d="m 123.166,168.15798 c 0,0 -14.97387,-2.46681 -9.49499,0.98701"
       id="path2439"
       sodipodi:nodetypes="cc" />
  </g>
</svg>
